<svg xmlns="http://www.w3.org/2000/svg" viewBox="0 0 204 204"><defs><style>.cls-1{fill:#f7941d;fill-opacity:0.75;}.cls-1,.cls-2,.cls-3{stroke:#231f20;}.cls-1,.cls-2,.cls-3,.cls-4{stroke-miterlimit:10;stroke-width:4px;}.cls-2{fill:#cc7c50;}.cls-3,.cls-4{fill:#c74800;}.cls-4{stroke:#ffba01;}</style></defs><g id="Layer_2" data-name="Layer 2"><g id="Layer_1-2" data-name="Layer 1"><circle class="cls-1" cx="102" cy="102" r="100"/><path class="cls-2" d="M56.22,123.89c-9.94-11.31-.85-35.53,20.3-54.09s46.34-24.45,56.27-13.14"/><path class="cls-3" d="M151.32,67.93l-6.06,5.32L65,143.73a7.76,7.76,0,0,1-5.48,1.85A7.49,7.49,0,0,1,54.33,143L52,140.37a7.57,7.57,0,0,1,.69-10.66L139,53.91a7.58,7.58,0,0,1,10.66.69L152,57.26A7.58,7.58,0,0,1,151.32,67.93Z"/><path class="cls-2" d="M147.78,73.74c9.94,11.31.85,35.53-20.3,54.1S81.14,152.29,71.21,141"/><path class="cls-4" d="M136,61.17c-1.81-2.63,9,12.57,1.85,14.12-3.48.74-5.87-6.33-9.78-6.37a4.06,4.06,0,0,0-3.4,2.22c-1.74,3.49,1.33,6.59,2.81,12.29.48,1.86-2,4.21-3.85,4.45-3.69.47-5.57-7.49-10.07-7.41a5.91,5.91,0,0,0-5.19,4.3c-.89,4.1,5.46,6.51,4.89,11.4-.28,2.4-2.18,5.07-4.3,5.34-4,.5-6.33-7.84-11-7.41a5.11,5.11,0,0,0-3.85,2.67c-2.05,4,4.15,8.54,2.22,13.33a5.78,5.78,0,0,1-4,3.56c-4.06.63-6.47-6.13-10.52-5.49a5.44,5.44,0,0,0-4,3.86c-1,4,4.61,6.58,3.71,10.66-.52,2.33-3,4.47-5,4.3-3.24-.28-3.68-5.63-7.11-6.82-2.24-.77-5.23,1.46-5.52,3.72-.68,5.35,6.19,15.37,3.55,11.12"/></g></g></svg>