<svg xmlns="http://www.w3.org/2000/svg" viewBox="0 0 204 204"><defs><style>.cls-1{fill:#f7941d;fill-opacity:0.75;}.cls-1,.cls-2,.cls-7,.cls-8{stroke:#231f20;}.cls-1,.cls-3,.cls-4,.cls-5,.cls-6,.cls-7,.cls-8{stroke-miterlimit:10;}.cls-1,.cls-2,.cls-7{stroke-width:4px;}.cls-2{fill:#ffc663;stroke-linejoin:round;}.cls-3,.cls-6{fill:none;}.cls-3,.cls-4,.cls-5,.cls-6{stroke:#cc7c50;}.cls-4{fill:#ba3e00;}.cls-5{fill:#6a4300;}.cls-6,.cls-8{stroke-width:2px;}.cls-7,.cls-8{fill:#cc7c50;stroke-linecap:round;}</style></defs><g id="Layer_2" data-name="Layer 2"><g id="Layer_1-2" data-name="Layer 1"><circle class="cls-1" cx="102" cy="102" r="100"/><path class="cls-2" d="M153.52,98.07,102.38,48.59a3,3,0,0,0-4.87,1L60.22,139.3a3,3,0,0,0,4,3.9L152.67,103A3,3,0,0,0,153.52,98.07Z"/><path class="cls-3" d="M63.55,141.47l89.22-40.57L99.42,49.64,62,140A1.13,1.13,0,0,0,63.55,141.47Z"/><circle class="cls-4" cx="112.32" cy="103.81" r="5.11"/><circle class="cls-4" cx="103.84" cy="76.81" r="5.11"/><circle class="cls-4" cx="84.5" cy="116.9" r="5.11" transform="translate(-38.09 192.91) rotate(-85.93)"/><path class="cls-5" d="M93.57,93.27c-1.22-.74-1.46-5,.42-7.74,2.33-3.39,6.37-2.3,6.8-.52C101.39,87.52,95.51,94.44,93.57,93.27Z"/><path class="cls-6" d="M98.28,89.78c1.44,2.06,3.71,1.91,2,1.63"/><path class="cls-5" d="M93,115.59c-.62-1.28,1.51-5,4.59-6.24,3.8-1.57,6.59,1.56,6,3.28C102.71,115.06,94,117.64,93,115.59Z"/><path class="cls-6" d="M98.87,115.25a3.89,3.89,0,1,1,.77,2.45"/><path class="cls-5" d="M123.56,87.81c1.35-.46,4.75,2.1,5.64,5.31,1.1,4-2.34,6.35-4,5.53C122.91,97.5,121.4,88.54,123.56,87.81Z"/><path class="cls-6" d="M123.19,93.66c-2.5-.23-3.85,1.61-2.53.47"/><path class="cls-7" d="M98.28,48.51c7.42-7.74,25.84-2.1,41.16,12.58S160.09,95.24,152.67,103"/><line class="cls-8" x1="97.51" y1="49.6" x2="152.67" y2="102.97"/></g></g></svg>