<svg xmlns="http://www.w3.org/2000/svg" viewBox="0 0 204 204"><defs><style>.cls-1{fill:#f7941d;fill-opacity:0.75;}.cls-1,.cls-4{stroke:#231f20;stroke-miterlimit:10;stroke-width:4px;}.cls-2{fill:#fff;}.cls-3{fill:#231f20;}.cls-4{fill:#a97c50;}</style></defs><g id="Layer_2" data-name="Layer 2"><g id="Layer_1-2" data-name="Layer 1"><circle class="cls-1" cx="102" cy="102" r="100"/><path class="cls-2" d="M55.78,132.93a3.24,3.24,0,0,0,2,2.84,5.65,5.65,0,0,0,2.9.44,3.65,3.65,0,0,0,1.63-.35c.28-.07.17-.11-.31-.11s-.58-.12-.33,0a2.34,2.34,0,0,0,.5.25,9.82,9.82,0,0,0,2.8.83,10.43,10.43,0,0,0,5.65-.36,7.36,7.36,0,0,0,3.6-3.83,2.59,2.59,0,0,0-.39-3,2.54,2.54,0,0,0-3-.39c-2.79,1.83-5.76,3.95-6.68,7.35a17,17,0,0,0-.33,2.23c-.13,1-.38,2-.44,3a6.89,6.89,0,0,0,1.41,5.12,3.82,3.82,0,0,0,5.43.13,5.59,5.59,0,0,0,1.33-5.21,3.34,3.34,0,0,0-2.48-2.2,4.39,4.39,0,0,0-.49-.09c.09-.05.5.34.56.35s-.08-.1-.15-.22-.22-.35-.34-.52a9.57,9.57,0,0,0-3.87-3.32c-.49-.22-.86-.36-1.1-.47l-.47-.25-.23-.15c.12.1.11.1,0,0-.71-.54-1.4-1.12-2.12-1.65l-.41-.31s-.47-.37-.2-.15a9.63,9.63,0,0,1-.83-.73c-.12-.11-.23-.23-.34-.35s.1.22-.11-.15c-.08-.13-.17-.26-.24-.4l.07.17c-.1-.27-.1-.3,0-.09l-.34,1.26a1.5,1.5,0,0,1-1.23.77h.39c.44,0,.88.09,1.32.13.66.07,1.32.15,1.95.24,1.63.23,3.26.51,4.87.85l.57.12q.43.13.12,0a1,1,0,0,1-.46-.6c.07.29.07.3,0,0,0,.61,0,1.21.09,1.81.24,2.08,1.12,4.6,3.71,4.27,1.69-.21,2.73-1.56,3.4-3,.12-.25.24-.49.38-.73l.07-.11c.12-.13.24-.25.37-.37l.11-.08a6.13,6.13,0,0,0,.69-.57,3.28,3.28,0,0,0,.81-1.38c.65-2.31-1.5-3.47-3.15-4.44s-3.7-1.38-5.3-.22a2.58,2.58,0,0,0-.9,3.42,2.51,2.51,0,0,0,3.42.9c.25-.16.26-.18,0-.06a.52.52,0,0,1-.35,0c.16-.07.39.15.57.26l.9.56.54.34c.34.22.36.22,0,0l-.64-1.1,0,.2v-1.33c.66-.76.81-1,.46-.71l-.62.47c-.16.14-.33.28-.48.44A7.28,7.28,0,0,0,69,134.16c-.18.33-.32.68-.49,1,0,.1-.1.2-.16.3s-.07.13.09-.06l-.15.16a1.18,1.18,0,0,1,.87-.35l1.26.34-.16-.09.9.9c-.27-.36,0,.37-.12-.28,0-.19-.09-.37-.13-.56.06.32,0-.26,0-.33v-.62a5.42,5.42,0,0,0-.78-3c-1.34-2-4.26-2.07-6.4-2.42q-1.8-.3-3.6-.51a19.37,19.37,0,0,0-3.12-.29,3.5,3.5,0,0,0-3,1.7,4.08,4.08,0,0,0,.47,4,15.36,15.36,0,0,0,4.15,3.88c.38.28-.42-.37.19.14l.41.34a12.33,12.33,0,0,0,1.35,1,14.62,14.62,0,0,0,1.56.71l.14.06a7.37,7.37,0,0,1,.83.46,2.73,2.73,0,0,1,.66.51,3.43,3.43,0,0,1,.61.72,5,5,0,0,0,2.66,2.43,1.74,1.74,0,0,0,.6.13l-.94-1.09-.06-.21,0-.21-.12.53,0,.14c-.05.16-.05.17,0,0l.09-.14a.89.89,0,0,1,.83-.31,1.17,1.17,0,0,1,1.08.52c-.37-.51,0,.29-.08-.06,0-.1-.13-.53-.12-.46a9.12,9.12,0,0,1,.25-3.09,11.92,11.92,0,0,1,.49-2.72,6.26,6.26,0,0,1,1.65-2,22.55,22.55,0,0,1,2.56-1.84l-3.42-3.42a10.82,10.82,0,0,1-.79,1.41c-.09.14-.09.14,0,0a3.19,3.19,0,0,1-.26.26c-.13.12-.12.11,0,0-.26.13-.32.17-.19.11a3.42,3.42,0,0,1-1.21.17c-.28,0-.56,0-.84,0-.07,0-.79-.07-.48,0a6.89,6.89,0,0,1-1.67-.4c.23.09-.42-.23-.41-.22a5.16,5.16,0,0,0-1.1-.44,4.25,4.25,0,0,0-2.39.24,1,1,0,0,1-.65.08c-.17,0-.2,0-.07,0-.63-.22-.42,0,.63.61l.34,1.26,0-.17a2.57,2.57,0,0,0-2.5-2.5,2.52,2.52,0,0,0-2.5,2.5Z"/><path class="cls-2" d="M76.82,135.39c-1.71,1.27-5.39,3.63-6.72,5.26"/><path class="cls-3" d="M75.87,133.77c-1.16.86-2.37,1.67-3.54,2.53a19,19,0,0,0-3.55,3,2,2,0,0,0-.55,1.33,1.86,1.86,0,0,0,.55,1.32,1.89,1.89,0,0,0,2.65,0,12.57,12.57,0,0,1,1.33-1.3l.87-.69c-.5.4,0,0,.16-.12s.34-.26.52-.38c1.14-.84,2.32-1.63,3.46-2.48a2.05,2.05,0,0,0,.86-1.12,1.91,1.91,0,0,0-.19-1.44,1.89,1.89,0,0,0-2.57-.67Z"/><path class="cls-2" d="M70.1,140.65a5.75,5.75,0,0,1,3.4,4.18A6,6,0,0,1,72,149.92c-2.55,2.8-7.7,3-10.54.42a7.07,7.07,0,0,1-.3-10"/><path class="cls-3" d="M69.16,142.27a5.75,5.75,0,0,1,.74.38l.31.2c.25.17-.18-.16.05,0s.39.38.58.58c0,0,.23.27,0,0,.09.12.17.24.25.37l.18.31c0,.07.21.42.08.12a5.82,5.82,0,0,1,.22.67c0,.12,0,.23.07.35,0-.08,0-.32,0,.08a5.24,5.24,0,0,1,0,1c0-.3-.09.4-.11.46s-.24.7-.14.48a4.55,4.55,0,0,1-.8,1.27c-.15.16-.3.31-.46.45,0,0-.4.31-.18.15l-.14.09c-.18.11-.36.23-.55.33l-.36.18c-.32.15.13,0-.08,0a10.21,10.21,0,0,1-1.34.37l-.32.05c.07,0,.36,0,0,0s-.55,0-.83,0l-.66,0c-.08,0-.37,0,0,0l-.33-.06a8.54,8.54,0,0,1-1.42-.4c.35.13-.18-.09-.29-.15s-.42-.24-.63-.37l-.13-.09c.18.14-.09-.07-.13-.11a6.57,6.57,0,0,1-.59-.59l-.12-.14-.1-.14c-.14-.21-.26-.42-.38-.64l-.14-.3c0,.07.11.33,0,0a7,7,0,0,1-.24-.78l-.08-.32s-.07-.5,0-.24,0-.1,0-.16,0-.33,0-.49,0-.49,0-.74,0-.06,0,0c0-.16.06-.32.1-.48a4.86,4.86,0,0,1,1.23-2.36A1.87,1.87,0,0,0,59.78,139c-3.81,4-3.07,11.17,2,13.84,4.93,2.59,12.16.57,13.47-5.32A7.55,7.55,0,0,0,71.05,139a1.93,1.93,0,0,0-2.56.67,1.89,1.89,0,0,0,.67,2.57Z"/><path class="cls-2" d="M61,140.33c-2.19.46-4.6.67-6.55-.35a5.38,5.38,0,0,1-2.71-5.89,6.52,6.52,0,0,1,5-4.55,8.19,8.19,0,0,1,6.83,1.75"/><path class="cls-3" d="M60.46,138.53a11.21,11.21,0,0,1-2.47.3H57.4l-.39,0h-.14l-.14,0-.38-.08a4.71,4.71,0,0,1-.64-.19s-.4-.16-.23-.08-.13-.07-.13-.07c-.17-.09-.33-.19-.5-.3s0,0,0,.05l-.19-.16c-.16-.15-.32-.3-.46-.46s-.11-.13-.16-.19.19.28,0,0c-.09-.14-.17-.28-.25-.42l-.15-.29s.1.28,0,.08-.14-.41-.19-.62-.11-.51-.08-.3,0-.3,0-.38,0-.32,0-.48c0-.36,0,0,0,0l.06-.31c.05-.19.12-.37.17-.55s0,0,0,.06.09-.19.14-.29.16-.29.25-.43l.14-.2c.12-.17-.16.17.07-.09a9.45,9.45,0,0,1,.78-.77l0,0,.28-.19c.19-.13.39-.24.59-.35l.47-.23c-.3.13.19-.05.28-.08l.51-.14.36-.07c.31,0-.25,0,.06,0a8.35,8.35,0,0,1,1.5,0c.22,0,0,0,0,0l.37.07.72.18a6,6,0,0,1,.71.25h0l.42.21a6.32,6.32,0,0,1,.56.33l.31.2c.27.2-.32-.26.13.1A1.87,1.87,0,1,0,64.86,130c-3.72-3.05-9.35-3.43-12.92.11A7.23,7.23,0,0,0,49.75,136a7.34,7.34,0,0,0,3.49,5.49c2.49,1.46,5.5,1.22,8.22.66a1.89,1.89,0,0,0,1.31-2.3,1.93,1.93,0,0,0-2.31-1.31Z"/><path class="cls-2" d="M63.53,131.29a49.37,49.37,0,0,1,6.18-4.84"/><path class="cls-3" d="M64.86,132.61c.94-.87,1.93-1.7,2.94-2.5l.09-.07.4-.3.78-.58c.52-.38,1.05-.74,1.58-1.09a1.87,1.87,0,1,0-1.89-3.23A49.1,49.1,0,0,0,62.21,130a1.87,1.87,0,1,0,2.65,2.65Z"/><ellipse class="cls-4" cx="108.9" cy="94.5" rx="50.32" ry="34.36" transform="translate(-35.16 100.59) rotate(-43.37)"/></g></g></svg>